# xmcd CD database file
#
# Track frame offsets:
#	150
#	18902
#	37407
#	54070
#	66162
#	77217
#	86527
#	96950
#	113630
#	127482
#	142607
#	159812
#	178932
#	195640
#	209055
#	223165
#	236217
#	264967
#	273590
#	283230
#
# Disc length: 3921 seconds
#
# Revision: 0
# Processed by: cddbd v1.5.1PL0 Copyright (c) Steve Scherf et al.
# Submitted via: CDex 1.51
#
DISCID=300f4f14
DTITLE=Various Artist - Nipper's Holiday Favorites '94
DYEAR=1994
DGENRE=Country
TTITLE0=Alabama - Angels Among Us
TTITLE1=Alabama - Thistlehair The Christmas Bear
TTITLE2=Alabama - Tennessee Christmas
TTITLE3=Clint Black - 'Til Santa's Gone (I Just Can't Wait)
TTITLE4=Eddy Arnold - I Hear The Bells On Christmas Day
TTITLE5=Eddy Arnold - Up On The Housetop
TTITLE6=Waylong Jennings and Jessi Colter - Silent Night, Holy Night
TTITLE7=Dolly Parton - Winter Wonderland - Sleigh Ride (Medley)
TTITLE8=Dolly Parton - White Christmas
TTITLE9=Kenny Rogers - The Christmas Song
TTITLE10=Restless Heart - Little Drummer Boy
TTITLE11=Keith Whitley - There's A New Kid In Town
TTITLE12=K.T. Oslin - Blue Christmas
TTITLE13=The Judds - Silver Bells
TTITLE14=Lorrie Morgan - Sleigh Ride
TTITLE15=Ronnie Milsap - Christmas Thoughts (Narrative)
TTITLE16=Ronnie Milsap - Christmas Medley
TTITLE17=Elvis Presley - I'll Be Home For Christmas
TTITLE18=Elvis Presley - Blue Christmas
TTITLE19=Elvis Presley - White Christmas
EXTD=YEAR: 1994
EXTT0=
EXTT1=
EXTT2=
EXTT3=
EXTT4=
EXTT5=
EXTT6=
EXTT7=
EXTT8=
EXTT9=
EXTT10=
EXTT11=
EXTT12=
EXTT13=
EXTT14=
EXTT15=
EXTT16=
EXTT17=
EXTT18=
EXTT19=
PLAYORDER=
